<svg width="170" height="98" viewBox="0 0 170 98" fill="none" xmlns="http://www.w3.org/2000/svg">
<g clip-path="url(#clip0)">
<path d="M85.2537 97.2332C103.704 97.2332 118.662 93.4179 118.662 88.7114C118.662 84.005 103.704 80.1897 85.2537 80.1897C66.803 80.1897 51.8457 84.005 51.8457 88.7114C51.8457 93.4179 66.803 97.2332 85.2537 97.2332Z" fill="#CCCCCC"/>
<path d="M162.557 6.30613C162.388 5.70961 161.88 5.19831 161.373 4.94265C160.273 4.60178 159.005 4.85744 158.244 5.79483C158.328 5.53918 158.413 5.28352 158.497 5.02787C158.751 4.00526 158.582 2.89744 157.99 1.96005C157.651 1.44874 157.144 1.10787 156.552 1.02265C155.283 0.852214 153.93 1.96004 153.423 3.57917C152.915 1.96004 151.562 0.852214 150.293 1.02265C149.701 1.10787 149.194 1.53396 148.855 2.04526C148.263 2.98265 148.094 4.09048 148.348 5.11309C148.348 5.28352 148.433 5.53917 148.517 5.70961C147.756 4.94265 146.572 4.687 145.557 5.02787C144.965 5.28352 144.542 5.79483 144.373 6.39135C144.035 7.41396 144.204 8.43656 144.627 9.37396C145.219 10.6522 146.403 11.5044 147.756 11.5896C148.094 11.5896 148.348 11.5044 148.686 11.4192C149.278 11.1635 149.701 10.6522 149.87 10.0557C150.124 9.28874 150.124 8.35135 149.786 7.58439C150.209 7.92526 150.716 8.18091 151.308 8.18091C151.393 8.18091 151.477 8.18091 151.646 8.18091C152.239 8.09569 152.746 7.75483 153.084 7.24352C153.253 7.07309 153.338 6.81744 153.423 6.647C153.507 6.90265 153.592 7.07309 153.761 7.24352C154.099 7.75483 154.607 8.09569 155.199 8.18091C155.283 8.18091 155.368 8.18091 155.537 8.18091C156.214 8.18091 156.806 7.92526 157.229 7.41395C156.89 8.26613 156.806 9.20352 157.144 10.0557C157.313 10.6522 157.821 11.1635 158.328 11.4192C158.582 11.5044 158.92 11.5896 159.258 11.5896C160.612 11.5044 161.796 10.567 162.388 9.37396C162.726 8.35135 162.811 7.24352 162.557 6.30613ZM148.179 9.37396C148.179 9.54439 148.01 9.71483 147.841 9.71483C147.333 9.88526 146.487 9.37396 145.98 8.43657C145.726 7.92526 145.641 7.32874 145.811 6.81743C145.895 6.647 145.98 6.56178 146.064 6.47656C146.149 6.47656 146.234 6.47656 146.318 6.47656C147.079 6.647 147.671 7.07308 147.925 7.75482C148.263 8.26613 148.263 8.86265 148.179 9.37396ZM151.562 6.22091C151.477 6.30613 151.393 6.39135 151.224 6.47656C150.801 6.56178 150.04 5.88004 149.87 4.687C149.701 4.09048 149.786 3.49396 150.04 2.89744C150.124 2.727 150.209 2.64178 150.378 2.64178C150.801 2.55656 151.562 3.2383 151.816 4.43134C151.985 5.02787 151.9 5.70961 151.562 6.22091ZM156.721 4.60178C156.467 5.79483 155.706 6.47656 155.283 6.39135C155.114 6.39135 155.03 6.30613 154.945 6.13569C154.691 5.62439 154.607 4.94265 154.776 4.34613C155.03 3.2383 155.706 2.55656 156.129 2.55656H156.214C156.383 2.55656 156.467 2.64178 156.552 2.81222C156.806 3.40874 156.89 4.09048 156.721 4.60178ZM160.696 8.52178C160.189 9.45917 159.343 9.97048 158.836 9.80004C158.666 9.71482 158.582 9.62961 158.497 9.45917C158.328 8.86265 158.413 8.35134 158.666 7.84004C159.005 7.1583 159.597 6.647 160.273 6.56178C160.358 6.56178 160.442 6.56178 160.527 6.56178C160.696 6.647 160.781 6.81743 160.781 6.90265C161.119 7.41395 161.035 8.01048 160.696 8.52178ZM156.975 11.5896C155.875 10.3966 154.945 8.09569 153.253 8.09569C151.562 8.09569 150.716 10.3966 149.532 11.5896C148.602 12.527 147.079 13.2087 146.995 14.487C146.91 15.5096 147.418 16.447 148.348 16.9583C148.602 17.1287 148.94 17.214 149.278 17.1287C150.547 17.1287 151.985 16.1913 153.338 16.1913C154.691 16.1913 156.129 17.1287 157.398 17.1287C157.736 17.1287 157.99 17.0435 158.328 16.9583C159.089 16.6174 159.597 15.7653 159.597 14.9131C159.512 13.5496 157.905 12.6122 156.975 11.5896ZM157.567 15.3392C157.482 15.3392 157.398 15.3392 157.398 15.3392C156.89 15.254 156.383 15.1687 155.96 14.9983C155.114 14.6574 154.268 14.487 153.338 14.4018C152.408 14.487 151.562 14.6574 150.716 14.9983C150.293 15.1687 149.786 15.3392 149.278 15.3392C149.194 15.3392 149.109 15.3392 149.109 15.254C148.855 15.0835 148.771 14.8279 148.771 14.5722C149.025 14.2314 149.363 13.8905 149.786 13.6348C150.209 13.3792 150.547 13.0383 150.885 12.6974C151.308 12.1861 151.731 11.6748 152.069 11.1635C152.492 10.6522 153.084 9.71483 153.423 9.71483C153.761 9.71483 154.438 10.6522 154.86 11.2487C155.199 11.76 155.537 12.1861 155.96 12.6122C156.298 12.9531 156.637 13.294 156.975 13.6348C157.398 13.9757 158.074 14.5722 158.074 14.8279C157.821 15.1687 157.736 15.254 157.567 15.3392Z" fill="#4AC8D6"/>
<path d="M166.786 46.1026C166.025 46.1026 165.179 46.1878 164.502 46.5287C163.318 45.9322 161.965 45.9322 160.866 46.5287C160.104 46.1878 159.343 46.1026 158.582 46.1026C156.467 46.1026 155.114 51.6417 155.114 53.0904C155.114 53.6869 156.045 54.1982 157.313 54.4539C157.736 55.9878 159.851 57.1809 162.388 57.3513V54.3687C161.965 54.113 161.373 53.6017 161.373 53.1756C161.373 52.4939 162.726 52.4939 162.726 52.4939C162.726 52.4939 164.079 52.4939 164.079 53.1756C164.079 53.6869 163.487 54.113 163.064 54.3687V57.3513C165.602 57.2661 167.716 56.073 168.139 54.4539C169.408 54.1982 170.338 53.6869 170.338 53.0904C170.254 51.6417 168.9 46.1026 166.786 46.1026ZM157.229 53.0052C156.975 52.92 156.721 52.8348 156.467 52.7495C156.637 50.7895 157.99 47.8069 158.582 47.5513C158.92 47.5513 159.174 47.5513 159.512 47.6365C158.244 49.1704 157.482 51.0452 157.229 53.0052ZM160.527 51.6417C160.104 51.6417 159.851 51.3009 159.851 50.96C159.851 50.6191 160.189 50.2783 160.527 50.2783C160.95 50.2783 161.204 50.6191 161.204 50.96C161.288 51.3861 160.95 51.6417 160.527 51.6417ZM164.756 51.6417C164.333 51.6417 164.079 51.3009 164.079 50.96C164.079 50.6191 164.418 50.2783 164.756 50.2783C165.179 50.2783 165.433 50.6191 165.433 50.96C165.433 51.3861 165.094 51.6417 164.756 51.6417ZM168.055 53.0052C167.801 51.0452 167.04 49.1704 165.856 47.6365C166.194 47.5513 166.448 47.5513 166.786 47.5513C167.378 47.8069 168.731 50.8748 168.9 52.7495C168.647 52.8348 168.308 52.92 168.055 53.0052Z" fill="#F69E1A"/>
<path d="M26.4723 9.28868L25.542 9.37389C24.9499 8.69215 23.343 6.90259 21.6514 6.90259C20.8057 8.35128 20.8057 10.1408 21.6514 11.6748C21.3131 12.1008 21.0594 12.6122 20.9748 13.2087L19.6216 13.3791L19.7907 14.0608L20.9748 13.8904L21.0594 14.4017L19.9599 15.0835L20.2982 15.68L21.3131 15.0835C22.0743 16.7878 24.1042 17.64 26.3878 17.64C28.6713 17.64 30.7012 16.7878 31.4624 15.0835L32.4773 15.68L32.8156 15.0835L31.7161 14.4017L31.8007 13.8904L32.9848 14.0608L33.1539 13.3791L31.8007 13.2087C31.7161 12.6122 31.547 12.1008 31.1241 11.6748C31.8853 10.2261 31.8853 8.4365 31.1241 6.90259C29.5171 6.90259 27.8256 8.69215 27.2335 9.37389L26.4723 9.28868ZM24.4425 11.3339C24.7808 11.3339 25.1191 11.6748 25.1191 12.0156C25.1191 12.3565 24.7808 12.6974 24.4425 12.6974C24.1042 12.6974 23.7659 12.3565 23.7659 12.0156C23.7659 11.6748 24.0196 11.3339 24.4425 11.3339ZM28.5022 11.3339C28.8405 11.3339 29.1788 11.6748 29.1788 12.0156C29.1788 12.3565 28.8405 12.6974 28.5022 12.6974C28.1639 12.6974 27.8256 12.3565 27.8256 12.0156C27.8256 11.6748 28.1639 11.3339 28.5022 11.3339ZM25.7957 13.3791H27.1489L26.6415 14.3165C26.7261 14.7426 27.1489 15.0835 27.6564 15.0835C28.2485 15.0835 28.6713 14.6574 28.6713 14.0608H29.0097C29.0097 14.8278 28.4176 15.4243 27.6564 15.4243C27.1489 15.4243 26.7261 15.1687 26.4723 14.7426C26.2186 15.1687 25.7957 15.4243 25.2883 15.4243C24.5271 15.4243 23.935 14.8278 23.935 14.0608H24.2733C24.2733 14.6574 24.6962 15.0835 25.2883 15.0835C25.7111 15.0835 26.134 14.7426 26.3032 14.3165L25.7957 13.3791Z" fill="#F69E1A"/>
<path d="M33.2386 43.2905L31.5471 42.6088C31.4625 42.2679 31.2934 41.8418 31.0396 41.5861C30.1093 40.6488 28.5869 40.6488 27.7411 41.5861L26.8954 42.4383L23.174 38.4331C22.6665 40.6488 23.174 43.0348 24.5272 44.8244L21.4824 47.807C21.4824 47.807 26.4725 48.9148 29.4327 46.614C30.9551 45.4209 31.3779 44.654 31.5471 43.887L33.2386 43.2905ZM30.2784 43.3757C30.0247 43.6314 29.6864 43.6314 29.5172 43.3757C29.2635 43.1201 29.2635 42.7792 29.5172 42.6088C29.771 42.3531 30.1093 42.3531 30.2784 42.6088C30.4476 42.7792 30.4476 43.1201 30.2784 43.3757Z" fill="#FACE85"/>
<path d="M142.089 72.52L140.313 69.367C140.398 68.4296 139.806 67.5774 138.875 67.4922H138.791C138.199 67.4922 137.691 67.8331 137.438 68.3444C137.691 68.1739 137.945 68.1739 138.199 68.1739C139.045 68.1739 139.721 68.8557 139.721 69.7079C139.721 70.56 139.045 71.2418 138.199 71.2418H140.398V72.52H134.816C134.647 72.52 134.477 72.4348 134.393 72.3496C134.139 72.0939 134.139 71.6678 134.393 71.4974L134.731 71.1565C134.477 71.0713 134.308 70.9009 134.139 70.7305C133.885 71.2418 133.378 71.4122 132.871 71.1565C132.363 70.9009 132.194 70.3896 132.448 69.8783C132.617 69.5374 132.955 69.367 133.293 69.367L133.632 69.4522V68.1739C133.632 66.4696 134.985 65.0209 136.761 65.0209C138.114 65.0209 139.214 65.6174 139.214 64.68C139.214 64.2539 139.298 63.8279 139.552 63.487C139.045 63.2313 138.537 63.1461 137.945 63.1461C137.607 63.1461 137.353 62.8905 137.353 62.5496C137.353 62.2939 137.522 62.0383 137.776 61.9531H137.353C137.015 61.9531 136.761 61.6974 136.676 61.3565C136.676 61.0157 136.93 60.76 137.269 60.6748C137.269 60.6748 137.269 60.6748 137.353 60.6748H137.945C139.298 60.6748 140.482 61.3565 141.159 62.5496H141.328C141.751 62.5496 142.259 62.72 142.597 62.9757L142.935 63.2313C144.373 64.5096 144.204 65.3618 144.204 65.447C144.204 66.2992 143.527 66.9809 142.681 66.9809H142.343V67.0661C142.343 67.7478 142.089 68.4296 141.497 68.9409L143.696 72.7757H142.089V72.52ZM142.174 63.7426C141.836 63.7426 141.582 63.9983 141.582 64.3392C141.582 64.68 141.836 64.9357 142.174 64.9357C142.512 64.9357 142.766 64.68 142.766 64.3392C142.766 63.9983 142.512 63.7426 142.174 63.7426Z" fill="#FACE85"/>
<path d="M127.119 92.4609L47.2783 12.0156L42.542 16.7878L58.8654 33.2348L67.0694 50.7043L62.0793 59.9078C61.4873 61.0156 61.149 62.2087 61.149 63.4869C61.149 67.6626 64.4475 70.9861 68.5917 70.9861H96.333L101.492 76.1843C98.1091 78.5704 97.3479 83.2574 99.7161 86.5809C101.069 88.5409 103.353 89.7339 105.806 89.7339C108.174 89.7339 110.457 88.5409 111.811 86.5809L122.383 97.233L127.119 92.4609ZM70.1141 63.4869C69.6067 63.4869 69.1838 63.0608 69.1838 62.5495L69.2683 62.1235L72.6514 55.9878H81.4475L88.8902 63.4869H70.1141ZM100.393 55.9878C103.099 55.9878 105.637 54.5391 106.905 52.153L120.184 27.8661C120.438 27.2695 120.607 26.673 120.607 25.9913C120.607 23.9461 118.915 22.2417 116.885 22.2417H66.8156L100.393 55.9878ZM68.5917 74.7356C64.4475 74.7356 61.149 78.0591 61.149 82.2348C61.149 86.4104 64.4475 89.7339 68.5917 89.7339C72.736 89.7339 76.0345 86.4104 76.0345 82.2348C76.0345 78.0591 72.736 74.7356 68.5917 74.7356Z" fill="#EC821C"/>
<path d="M13.7854 84.4505C14.7157 84.4505 15.4769 85.2174 15.4769 86.1548C15.4769 87.0922 14.7157 87.8591 13.7854 87.8591C12.855 87.8591 12.0938 87.0922 12.0938 86.1548C12.0938 85.2174 12.855 84.4505 13.7854 84.4505ZM0.253039 70.8157H3.04408L3.80528 72.52H16.3227C16.8302 72.52 17.1685 72.8609 17.1685 73.3722C17.1685 73.5426 17.1685 73.6278 17.0839 73.7983L14.0391 79.3374C13.7008 79.8487 13.1933 80.1896 12.5167 80.1896H6.17344L5.41224 81.5531V81.6383C5.41224 81.7235 5.49682 81.8087 5.58139 81.8087H15.3923V83.5131H5.24308C4.31274 83.5131 3.55154 82.7461 3.55154 81.8087C3.55154 81.5531 3.63612 81.2122 3.7207 80.9565L4.90478 78.9113L1.86 72.4348H0.168457V70.8157H0.253039ZM5.32767 84.4505C6.25801 84.4505 7.01921 85.2174 7.01921 86.1548C7.01921 87.0922 6.25801 87.8591 5.32767 87.8591C4.39732 87.8591 3.63612 87.0922 3.63612 86.1548C3.63612 85.2174 4.39732 84.4505 5.32767 84.4505ZM12.9396 78.4852L15.3078 74.2244H4.56647L6.59632 78.4852H12.9396Z" fill="#4AC8D6"/>
</g>
<defs>
<clipPath id="clip0">
<rect width="170" height="98" fill="white"/>
</clipPath>
</defs>
</svg>
