<svg width="34" height="26" viewBox="0 0 34 26" fill="none" xmlns="http://www.w3.org/2000/svg">
<path d="M24.2448 23.8405V24.3405H24.5046L24.654 24.1279L24.2448 23.8405ZM2.02022 23.8405H1.52022V24.3405H2.02022V23.8405ZM2.02022 2.15352V1.65352H1.52022V2.15352H2.02022ZM24.304 2.15352L24.7141 1.86751L24.5649 1.65352H24.304V2.15352ZM31.8621 12.9915L32.2713 13.2789L32.4723 12.9925L32.2722 12.7055L31.8621 12.9915ZM25.7816 2.57037L26.0053 3.01754L26.5371 2.75151L26.1837 2.27325L25.7816 2.57037ZM24.1998 1.14431V1.64431H24.301L24.3943 1.60491L24.1998 1.14431ZM4.40063 1.14431V0.644309L4.40049 0.644309L4.40063 1.14431ZM4.39625 24.8487V25.3487L4.39719 25.3487L4.39625 24.8487ZM24.1537 24.8487L24.1234 25.3477L24.1734 25.3508L24.223 25.3438L24.1537 24.8487ZM25.7794 23.4138L26.1851 23.7061L26.1872 23.7032L25.7794 23.4138ZM25.7794 2.57146L25.5557 2.12429L25.03 2.38725L25.3739 2.86396L25.7794 2.57146ZM8.54607 17.7085L8.19252 17.3549L8.19245 17.355L8.54607 17.7085ZM19.3512 6.90338L19.7047 7.25694L19.7105 7.2512L19.716 7.24528L19.3512 6.90338ZM20.0927 7.58789L19.7228 7.25151L19.7194 7.2553L20.0927 7.58789ZM20.0642 7.61641L19.7316 7.24307L19.7209 7.25266L19.7107 7.26286L20.0642 7.61641ZM9.2591 18.4215L9.61258 18.7751L9.61265 18.7751L9.2591 18.4215ZM8.90313 18.5689V19.0689V18.5689ZM17.7551 15.2767V14.7767V15.2767ZM12.2637 8.68376L12.7637 8.68403V8.68376H12.2637ZM10.2233 6.6434V6.1434H10.2231L10.2233 6.6434ZM24.2448 23.3405H2.02022V24.3405H24.2448V23.3405ZM2.52022 23.8405V2.15352H1.52022V23.8405H2.52022ZM2.02022 2.65352H24.304V1.65352H2.02022V2.65352ZM23.8939 2.43952L31.452 13.2776L32.2722 12.7055L24.7141 1.86751L23.8939 2.43952ZM31.4529 12.7042L23.8355 23.5532L24.654 24.1279L32.2713 13.2789L31.4529 12.7042ZM26.1837 2.27325C25.5792 1.45496 25.1402 1.04159 24.8159 0.836322C24.6505 0.731633 24.4997 0.671327 24.3602 0.648976C24.2898 0.637699 24.2236 0.636338 24.1622 0.643399C24.1317 0.646906 24.1032 0.652406 24.0768 0.659397C24.0636 0.662884 24.051 0.666715 24.0391 0.670806C24.0331 0.67285 24.0273 0.674956 24.0216 0.677111C24.0188 0.678188 24.0161 0.679277 24.0133 0.680377C24.0119 0.680927 24.0106 0.681479 24.0092 0.682034C24.0086 0.682311 24.0076 0.682728 24.0072 0.682867C24.0062 0.683285 24.0052 0.683704 24.1998 1.14431C24.3943 1.60491 24.3933 1.60533 24.3923 1.60575C24.392 1.60588 24.391 1.6063 24.3903 1.60657C24.389 1.60711 24.3877 1.60765 24.3864 1.60818C24.3837 1.60924 24.3811 1.61027 24.3785 1.61127C24.3733 1.61328 24.368 1.61516 24.3629 1.61693C24.3525 1.62048 24.3423 1.62355 24.3324 1.62618C24.3124 1.63146 24.2937 1.63487 24.2765 1.63684C24.2418 1.64084 24.2162 1.63866 24.202 1.63639C24.1748 1.63203 24.1984 1.62897 24.2811 1.68129C24.4529 1.79003 24.8048 2.08968 25.3795 2.86748L26.1837 2.27325ZM24.1998 0.644309H4.40063V1.64431H24.1998V0.644309ZM4.40049 0.644309C3.93334 0.644444 3.53033 0.635522 3.17915 0.627349C2.83157 0.61926 2.52524 0.6116 2.2659 0.615378C1.79109 0.622297 1.28979 0.659717 0.944086 0.983601C0.592591 1.31291 0.530564 1.81391 0.509366 2.30484C0.487057 2.8215 0.512106 3.56715 0.512106 4.53174H1.51211C1.51211 3.50972 1.48724 2.83878 1.50844 2.34798C1.53074 1.83145 1.60563 1.73412 1.62779 1.71336C1.65574 1.68718 1.76483 1.62279 2.28047 1.61527C2.51637 1.61183 2.80028 1.6188 3.15588 1.62708C3.50788 1.63527 3.92097 1.64445 4.40078 1.64431L4.40049 0.644309ZM0.512106 4.53174V21.4623H1.51211V4.53174H0.512106ZM0.512106 21.4623C0.512106 22.4432 0.490714 23.1919 0.517995 23.715C0.543867 24.211 0.613879 24.7113 0.972969 25.0355C1.15528 25.2001 1.37206 25.2832 1.58839 25.3278C1.79973 25.3714 2.03906 25.3837 2.29362 25.3854C2.55029 25.387 2.85356 25.3774 3.19568 25.368C3.54158 25.3585 3.93794 25.3487 4.39625 25.3487V24.3487C3.92377 24.3487 3.5163 24.3588 3.16812 24.3684C2.81614 24.3781 2.53508 24.3869 2.29996 24.3854C2.06274 24.3839 1.90284 24.3716 1.79031 24.3484C1.68278 24.3263 1.65107 24.3005 1.64306 24.2932C1.6215 24.2738 1.54356 24.179 1.51664 23.6629C1.49113 23.1738 1.51211 22.4932 1.51211 21.4623H0.512106ZM4.39625 24.8487C4.39719 25.3487 4.39726 25.3487 4.39741 25.3487C4.39755 25.3487 4.39777 25.3487 4.39806 25.3486C4.39865 25.3486 4.39952 25.3486 4.40068 25.3486C4.403 25.3486 4.40647 25.3486 4.41107 25.3486C4.42028 25.3486 4.43403 25.3486 4.45216 25.3485C4.48843 25.3485 4.54226 25.3484 4.6125 25.3483C4.75298 25.348 4.9591 25.3476 5.22164 25.3472C5.74674 25.3462 6.49754 25.345 7.40037 25.3436C9.20603 25.3407 11.6198 25.3373 14.0521 25.3351C16.4844 25.3328 18.9351 25.3317 20.8149 25.3334C21.7548 25.3342 22.5515 25.3358 23.1316 25.3383C23.4218 25.3395 23.657 25.341 23.8287 25.3427C23.9146 25.3435 23.9837 25.3444 24.0354 25.3454C24.0612 25.3459 24.082 25.3463 24.0978 25.3468C24.1057 25.347 24.1119 25.3472 24.1165 25.3474C24.1215 25.3476 24.1235 25.3477 24.1234 25.3477L24.184 24.3496C23.8657 24.3302 18.8979 24.3306 14.0511 24.3351C11.6185 24.3373 9.20459 24.3407 7.3988 24.3436C6.4959 24.345 5.74504 24.3463 5.21989 24.3472C4.95732 24.3476 4.75118 24.348 4.61068 24.3483C4.54042 24.3484 4.48658 24.3485 4.4503 24.3486C4.43216 24.3486 4.41842 24.3486 4.4092 24.3486C4.40459 24.3486 4.40112 24.3486 4.3988 24.3486C4.39763 24.3486 4.39676 24.3487 4.39618 24.3487C4.39589 24.3487 4.39567 24.3487 4.39552 24.3487C4.39538 24.3487 4.3953 24.3487 4.39625 24.8487ZM24.223 25.3438C24.5169 25.3027 24.7846 25.1377 24.9873 24.9841C25.2022 24.8214 25.4066 24.6224 25.5788 24.4379C25.7527 24.2517 25.9031 24.0701 26.0097 23.9358C26.0632 23.8683 26.1062 23.8121 26.1362 23.7722C26.1512 23.7522 26.163 23.7363 26.1712 23.7251C26.1753 23.7195 26.1786 23.7151 26.1809 23.7119C26.1821 23.7103 26.183 23.709 26.1837 23.708C26.184 23.7076 26.1843 23.7072 26.1846 23.7068C26.1847 23.7067 26.1848 23.7065 26.1849 23.7064C26.1849 23.7064 26.1849 23.7063 26.185 23.7063C26.185 23.7062 26.1851 23.7061 25.7794 23.4138C25.3738 23.1215 25.3738 23.1215 25.3738 23.1214C25.3738 23.1214 25.3739 23.1214 25.3739 23.1213C25.3739 23.1213 25.3739 23.1213 25.3739 23.1213C25.3739 23.1213 25.3738 23.1214 25.3737 23.1216C25.3735 23.1219 25.373 23.1225 25.3723 23.1235C25.3709 23.1254 25.3687 23.1285 25.3655 23.1327C25.3593 23.1412 25.3497 23.1543 25.3369 23.1712C25.3114 23.2051 25.2737 23.2545 25.2262 23.3143C25.1308 23.4347 24.9982 23.5945 24.8479 23.7555C24.696 23.9182 24.5351 24.0721 24.3835 24.187C24.2196 24.3112 24.1196 24.3485 24.0844 24.3535L24.223 25.3438ZM25.7794 23.4138C26.1872 23.7032 26.1872 23.7031 26.1873 23.703C26.1873 23.703 26.1874 23.7028 26.1875 23.7027C26.1877 23.7024 26.1881 23.7019 26.1885 23.7013C26.1894 23.7001 26.1907 23.6982 26.1924 23.6958C26.1959 23.6909 26.201 23.6837 26.2078 23.6741C26.2214 23.655 26.2415 23.6266 26.2677 23.5896C26.3202 23.5155 26.3972 23.4069 26.4952 23.2685C26.6912 22.9918 26.9713 22.5962 27.3076 22.1204C27.98 21.1688 28.8774 19.8964 29.7767 18.6137C30.6758 17.3312 31.5778 16.037 32.259 15.0423C32.5994 14.5453 32.8863 14.1208 33.0906 13.809C33.1924 13.6536 33.2762 13.5225 33.3365 13.4229C33.3663 13.3736 33.3936 13.3269 33.4152 13.2862C33.4259 13.2662 33.438 13.2422 33.4492 13.217C33.4561 13.2013 33.4797 13.1482 33.4917 13.0812L32.5075 12.9041C32.5136 12.8702 32.522 12.8456 32.5254 12.8359C32.5295 12.8242 32.533 12.8162 32.5343 12.8133C32.5367 12.8077 32.5369 12.8081 32.5323 12.8167C32.5233 12.8336 32.507 12.8622 32.4811 12.9049C32.43 12.9893 32.3539 13.1088 32.2542 13.2609C32.0556 13.564 31.7733 13.9818 31.434 14.4773C30.7559 15.4674 29.8565 16.7579 28.9579 18.0396C28.0596 19.321 27.163 20.5922 26.4909 21.5432C26.1549 22.0187 25.875 22.4141 25.6792 22.6905C25.5813 22.8288 25.5044 22.9373 25.452 23.0112C25.4257 23.0482 25.4057 23.0765 25.3921 23.0956C25.3854 23.1051 25.3802 23.1124 25.3768 23.1172C25.3751 23.1196 25.3738 23.1214 25.3729 23.1227C25.3725 23.1233 25.3722 23.1237 25.372 23.124C25.3718 23.1242 25.3718 23.1243 25.3717 23.1244C25.3717 23.1244 25.3716 23.1245 25.7794 23.4138ZM33.4917 13.0812C33.513 12.9633 33.487 12.8669 33.4805 12.8422C33.4697 12.8015 33.4559 12.766 33.4453 12.7407C33.4237 12.689 33.3957 12.6342 33.3675 12.5824C33.3098 12.4764 33.2281 12.3406 33.1296 12.1842C32.9315 11.8691 32.648 11.442 32.3101 10.9445C31.6333 9.94817 30.7267 8.65274 29.82 7.37004C28.913 6.08679 28.0042 4.81406 27.3224 3.8623C26.9814 3.38637 26.6971 2.99062 26.498 2.71381C26.3985 2.5754 26.3202 2.46673 26.2669 2.39264C26.2402 2.3556 26.2197 2.3272 26.2059 2.30805C26.199 2.29847 26.1938 2.29121 26.1902 2.28634C26.1885 2.2839 26.1872 2.28206 26.1863 2.28083C26.1858 2.28021 26.1855 2.27975 26.1853 2.27944C26.1852 2.27928 26.1851 2.27916 26.185 2.27908C26.185 2.279 26.1849 2.27896 25.7794 2.57146C25.3739 2.86396 25.3739 2.864 25.374 2.86407C25.374 2.86415 25.3741 2.86426 25.3742 2.86441C25.3744 2.86471 25.3748 2.86516 25.3752 2.86577C25.3761 2.86698 25.3774 2.8688 25.3791 2.87122C25.3826 2.87605 25.3878 2.88327 25.3947 2.8928C25.4084 2.91186 25.4288 2.94017 25.4554 2.97712C25.5087 3.05103 25.5868 3.1595 25.6862 3.29769C25.8849 3.57408 26.1689 3.96934 26.5094 4.44469C27.1906 5.39548 28.098 6.66634 29.0034 7.94725C29.9092 9.22871 30.8114 10.518 31.4829 11.5064C31.819 12.0014 32.0946 12.4167 32.2832 12.7166C32.3781 12.8676 32.4467 12.9823 32.4891 13.0604C32.511 13.1006 32.5205 13.1211 32.5229 13.1269C32.5244 13.1303 32.5193 13.1191 32.5137 13.098C32.5124 13.0931 32.4882 13.0117 32.5075 12.9041L33.4917 13.0812ZM26.0031 3.01863L26.0053 3.01754L25.5579 2.12319L25.5557 2.12429L26.0031 3.01863ZM8.89969 18.0669C8.89903 18.0663 8.89866 18.0654 8.89866 18.0645H7.89866C7.89866 18.3305 8.00434 18.5857 8.19245 18.7739L8.89969 18.0669ZM8.89866 18.0645C8.89866 18.0635 8.89903 18.0626 8.89969 18.062L8.19245 17.355C8.00434 17.5432 7.89866 17.7984 7.89866 18.0645H8.89866ZM8.89962 18.0621L19.7047 7.25694L18.9976 6.54983L8.19252 17.3549L8.89962 18.0621ZM19.716 7.24528C19.7169 7.24439 19.718 7.24387 19.7192 7.24383L19.683 6.24448C19.4181 6.25408 19.1676 6.36803 18.9863 6.56148L19.716 7.24528ZM19.7192 7.24383C19.7204 7.24378 19.7216 7.24422 19.7225 7.24504L20.4008 6.51024C20.206 6.33041 19.948 6.23488 19.683 6.24448L19.7192 7.24383ZM19.7225 7.24504C19.7234 7.24587 19.7239 7.24701 19.724 7.24823L20.723 7.2045C20.7114 6.93962 20.5956 6.69007 20.4008 6.51024L19.7225 7.24504ZM19.724 7.24823C19.724 7.24944 19.7236 7.25063 19.7228 7.25153L20.4627 7.92425C20.641 7.72809 20.7346 7.46937 20.723 7.2045L19.724 7.24823ZM19.7194 7.2553C19.7232 7.25098 19.7273 7.24689 19.7316 7.24307L20.3968 7.98975C20.4212 7.96802 20.4443 7.9449 20.4661 7.92048L19.7194 7.2553ZM19.7107 7.26286L8.90554 18.068L9.61265 18.7751L20.4178 7.96996L19.7107 7.26286ZM8.90561 18.0679C8.90495 18.0686 8.90406 18.0689 8.90313 18.0689V19.0689C9.16921 19.0689 9.4244 18.9633 9.61258 18.7751L8.90561 18.0679ZM8.90313 18.0689C8.9022 18.0689 8.90131 18.0686 8.90065 18.0679L8.19368 18.7751C8.38186 18.9633 8.63705 19.0689 8.90313 19.0689V18.0689ZM19.2955 17.317C19.2955 17.6217 19.2051 17.9195 19.0359 18.1728L19.8674 18.7284C20.1465 18.3106 20.2955 17.8194 20.2955 17.317H19.2955ZM19.0359 18.1728C18.8666 18.4261 18.6261 18.6235 18.3446 18.7401L18.7273 19.664C19.1915 19.4717 19.5882 19.1461 19.8674 18.7284L19.0359 18.1728ZM18.3446 18.7401C18.0631 18.8567 17.7534 18.8872 17.4546 18.8278L17.2595 19.8086C17.7523 19.9066 18.2631 19.8563 18.7273 19.664L18.3446 18.7401ZM17.4546 18.8278C17.1558 18.7683 16.8814 18.6216 16.6659 18.4062L15.9588 19.1133C16.3141 19.4686 16.7667 19.7105 17.2595 19.8086L17.4546 18.8278ZM16.6659 18.4062C16.4505 18.1908 16.3038 17.9163 16.2444 17.6175L15.2636 17.8126C15.3616 18.3054 15.6036 18.758 15.9588 19.1133L16.6659 18.4062ZM16.2444 17.6175C16.1849 17.3187 16.2154 17.009 16.332 16.7275L15.4081 16.3449C15.2159 16.809 15.1656 17.3198 15.2636 17.8126L16.2444 17.6175ZM16.332 16.7275C16.4486 16.4461 16.646 16.2055 16.8994 16.0363L16.3438 15.2048C15.926 15.4839 15.6004 15.8807 15.4081 16.3449L16.332 16.7275ZM16.8994 16.0363C17.1527 15.867 17.4505 15.7767 17.7551 15.7767V14.7767C17.2527 14.7767 16.7615 14.9256 16.3438 15.2048L16.8994 16.0363ZM17.7551 15.7767C18.1637 15.7767 18.5555 15.9389 18.8443 16.2278L19.5514 15.5207C19.075 15.0443 18.4289 14.7767 17.7551 14.7767V15.7767ZM18.8443 16.2278C19.1332 16.5167 19.2955 16.9085 19.2955 17.317H20.2955C20.2955 16.6433 20.0278 15.9971 19.5514 15.5207L18.8443 16.2278ZM11.7637 8.68349C11.7635 8.98786 11.6731 9.28534 11.5039 9.53834L12.3352 10.0942C12.6143 9.67688 12.7634 9.18613 12.7637 8.68403L11.7637 8.68349ZM11.5039 9.53834C11.3347 9.79135 11.0943 9.98851 10.8131 10.1049L11.1955 11.0289C11.6595 10.8369 12.0561 10.5116 12.3352 10.0942L11.5039 9.53834ZM10.8131 10.1049C10.5319 10.2213 10.2225 10.2517 9.92395 10.1923L9.72872 11.1731C10.2212 11.2711 10.7316 11.2209 11.1955 11.0289L10.8131 10.1049ZM9.92395 10.1923C9.62543 10.1329 9.35124 9.9863 9.13602 9.77108L8.42892 10.4782C8.78395 10.8332 9.23628 11.075 9.72872 11.1731L9.92395 10.1923ZM9.13602 9.77108C8.9208 9.55586 8.77422 9.28167 8.7148 8.98316L7.73404 9.17838C7.83206 9.67082 8.07387 10.1231 8.42892 10.4782L9.13602 9.77108ZM8.7148 8.98316C8.65538 8.68465 8.68579 8.37522 8.80219 8.09399L7.87821 7.71156C7.68619 8.17549 7.63602 8.68594 7.73404 9.17838L8.7148 8.98316ZM8.80219 8.09399C8.91859 7.81276 9.11576 7.57236 9.36876 7.40316L8.81285 6.57191C8.39548 6.85103 8.07023 7.24763 7.87821 7.71156L8.80219 8.09399ZM9.36876 7.40316C9.62176 7.23396 9.91925 7.14356 10.2236 7.1434L10.2231 6.1434C9.72097 6.14367 9.23022 6.29279 8.81285 6.57191L9.36876 7.40316ZM10.2233 7.1434C10.6319 7.1434 11.0237 7.30569 11.3125 7.59456L12.0196 6.88745C11.5432 6.41104 10.8971 6.1434 10.2233 6.1434V7.1434ZM11.3125 7.59456C11.6014 7.88343 11.7637 8.27523 11.7637 8.68376H12.7637C12.7637 8.01001 12.4961 7.36386 12.0196 6.88745L11.3125 7.59456Z" fill="white"/>
</svg>
