<svg width="33" height="33" viewBox="0 0 33 33" fill="none" xmlns="http://www.w3.org/2000/svg">
<path d="M17.5922 29.7046C18.8908 29.0148 19.2911 27.2272 18.4862 25.7118C17.6813 24.1964 15.9761 23.5271 14.6775 24.2168C13.3789 24.9066 12.9787 26.6942 13.7836 28.2096C14.5885 29.725 16.2937 30.3943 17.5922 29.7046Z" stroke="white" stroke-width="0.999825"/>
<path d="M17.3496 29.2479C18.3961 28.6921 18.7005 27.2174 18.0295 25.9541C17.3585 24.6908 15.9662 24.1173 14.9197 24.6731C13.8733 25.229 13.5688 26.7037 14.2398 27.967C14.9108 29.2303 16.3031 29.8038 17.3496 29.2479Z" stroke="white" stroke-width="0.899843"/>
<path d="M7.47657 31.6554C8.94338 31.5528 10.0354 30.082 9.91575 28.3703C9.79605 26.6586 8.50993 25.3542 7.04311 25.4567C5.5763 25.5593 4.48424 27.0301 4.60393 28.7418C4.72363 30.4535 6.00975 31.758 7.47657 31.6554Z" stroke="white"/>
<path d="M7.44062 31.1397C8.62268 31.057 9.50003 29.8333 9.40025 28.4063C9.30047 26.9794 8.26133 25.8896 7.07927 25.9723C5.89721 26.0549 5.01985 27.2787 5.11964 28.7056C5.21942 30.1326 6.25856 31.2224 7.44062 31.1397Z" stroke="white" stroke-width="0.9"/>
<path d="M1 7.42188L14.3131 24.6401" stroke="white" stroke-width="1.5" stroke-linecap="round"/>
<path d="M12.3618 4.75937L7.65723 25.7059" stroke="white" stroke-width="1.5" stroke-linecap="round"/>
<path fill-rule="evenodd" clip-rule="evenodd" d="M21.7237 1.34868L22.2596 1.22496L24.221 0.772123C24.9322 0.607931 25.6778 0.745043 26.2933 1.14602C26.908 1.54646 27.3434 2.17712 27.5096 2.8969L32.3674 23.9385C32.5336 24.6583 32.4187 25.416 32.0418 26.0454C31.6643 26.6756 31.0543 27.1256 30.3431 27.2898L28.3817 27.7427L27.8751 27.8596C27.8727 27.8602 27.8702 27.8608 27.8677 27.8614L24.141 28.7218C23.845 28.7901 23.5497 28.6056 23.4813 28.3096C23.413 28.0136 23.5976 27.7183 23.8935 27.65L27.5983 26.7946L27.1114 24.6856L23.4067 25.5409C23.1108 25.6092 22.8154 25.4247 22.7471 25.1287C22.6788 24.8328 22.8633 24.5374 23.1593 24.4691L26.864 23.6138L26.3771 21.505L22.6724 22.3603C22.3765 22.4286 22.0811 22.2441 22.0128 21.9481C21.9445 21.6521 22.129 21.3568 22.425 21.2885L26.1297 20.4332L25.6428 18.3242L21.9379 19.1795C21.6419 19.2479 21.3466 19.0633 21.2783 18.7674C21.21 18.4714 21.3945 18.1761 21.6905 18.1077L25.3953 17.2524L24.9084 15.1432L21.2036 15.9985C20.9077 16.0669 20.6123 15.8823 20.544 15.5864C20.4757 15.2904 20.6602 14.9951 20.9562 14.9267L24.661 14.0714L24.1741 11.9626L20.4693 12.8179C20.1733 12.8862 19.878 12.7017 19.8097 12.4057C19.7413 12.1098 19.9259 11.8144 20.2218 11.7461L23.9266 10.8908L23.4398 8.782L19.7351 9.63729C19.4392 9.70562 19.1438 9.52108 19.0755 9.22511C19.0072 8.92914 19.1917 8.63381 19.4877 8.56548L23.1923 7.7102L22.7055 5.60126L19.0008 6.45654C18.7049 6.52487 18.4095 6.34033 18.3412 6.04436C18.2729 5.74839 18.4574 5.45307 18.7534 5.38474L22.458 4.52946L21.9711 2.42059L18.2663 3.27592C17.9704 3.34425 17.675 3.15971 17.6067 2.86374C17.5384 2.56777 17.7229 2.27244 18.0189 2.20411L21.7237 1.34879L21.7237 1.34868ZM23.6346 2.55856L29.033 25.9417L29.9815 25.7227C30.2685 25.6565 30.5208 25.4737 30.68 25.2079C30.8397 24.9413 30.8918 24.6132 30.8186 24.2963L25.9608 3.25468C25.8876 2.93778 25.697 2.66577 25.4365 2.49613C25.177 2.32702 24.8701 2.27333 24.583 2.3396L23.6346 2.55856Z" fill="white"/>
</svg>
