<svg width="34" height="30" viewBox="0 0 34 30" fill="none" xmlns="http://www.w3.org/2000/svg">
<path d="M24.7026 28.9427C23.2902 28.8929 21.896 28.6075 20.5776 28.0985C19.4503 27.5949 18.2295 27.3347 16.9949 27.3347C15.7603 27.3347 14.5395 27.5949 13.4122 28.0985C12.084 28.6131 10.679 28.9018 9.25552 28.9525C6.60435 28.9525 5.08416 27.8057 5.08416 25.8072C5.08416 20.927 12.3105 13.381 16.9796 13.381C19.1928 13.381 22.1685 15.0769 24.7441 17.8086C27.294 20.5134 28.8776 23.5782 28.8751 25.806C28.8739 27.7995 27.3538 28.9427 24.7026 28.9427ZM16.9785 14.5559C12.8742 14.5559 6.26642 21.4895 6.26642 25.7975C6.26642 27.0992 7.27174 27.7593 9.25433 27.7593C10.5604 27.7065 11.8485 27.4364 13.0658 26.9602C14.306 26.4221 15.6436 26.1445 16.9955 26.1445C18.3475 26.1445 19.685 26.4221 20.9253 26.9602C22.1257 27.4295 23.3954 27.697 24.6831 27.752C26.6876 27.752 27.6917 27.0932 27.6917 25.7999C27.6942 21.5005 21.0839 14.5596 16.9785 14.5596V14.5559ZM4.67545 16.6202C4.01057 16.5328 3.37606 16.2885 2.8243 15.9074C2.27254 15.5262 1.81939 15.0193 1.50231 14.4284C1.18522 13.8375 1.01329 13.1796 1.00074 12.5091C0.988191 11.8386 1.13536 11.1748 1.43011 10.5724C1.59696 10.2665 1.82586 9.99877 2.10213 9.78638C2.37839 9.57398 2.69594 9.4216 3.03448 9.33898C3.22869 9.29237 3.42769 9.2686 3.62742 9.2682C4.29067 9.35824 4.92307 9.60451 5.47257 9.98669C6.02207 10.3689 6.47297 10.8761 6.78816 11.4666C7.10335 12.057 7.27386 12.7139 7.28559 13.3832C7.29733 14.0524 7.15 14.7148 6.8557 15.316C6.68903 15.6221 6.4602 15.8899 6.18391 16.1024C5.90761 16.3148 5.58996 16.4671 5.25133 16.5495C5.06273 16.5951 4.86949 16.6188 4.67545 16.6202ZM2.30367 13.2761C2.42582 13.8219 2.70828 14.3187 3.11479 14.7028C3.52131 15.087 4.03333 15.3408 4.58516 15.4319H4.61934H4.65471C4.90096 15.4341 5.1428 15.3665 5.35223 15.2369C5.56167 15.1074 5.73013 14.9212 5.83816 14.6999C6.02125 14.2841 6.11007 13.833 6.09827 13.3789C6.08648 12.9247 5.97437 12.4788 5.76995 12.0732C5.56553 11.6675 5.27387 11.312 4.9159 11.0323C4.55793 10.7526 4.14251 10.5555 3.69942 10.4553H3.66524H3.62135C3.51614 10.4549 3.41127 10.4673 3.309 10.4919C3.12476 10.5399 2.95271 10.6262 2.80408 10.7452C2.65545 10.8642 2.53358 11.0132 2.44642 11.1825C2.12727 11.8329 2.07388 12.5821 2.29757 13.2712L2.30367 13.2761ZM29.2973 16.619C29.1037 16.6179 28.9109 16.5946 28.7226 16.5495C28.3841 16.4674 28.0664 16.3153 27.7901 16.1031C27.5138 15.8908 27.285 15.6232 27.1183 15.3172C26.8711 14.8514 26.7209 14.3403 26.6766 13.8148C26.6324 13.2894 26.6951 12.7604 26.8609 12.2598C27.0591 11.4545 27.5057 10.7321 28.1375 10.195C28.7693 9.6578 29.5541 9.33312 30.3807 9.26698C30.5686 9.27004 30.7556 9.29379 30.9383 9.33776C31.2786 9.42099 31.5979 9.57449 31.8754 9.78839C32.153 10.0023 32.3827 10.2718 32.55 10.5798C32.7953 11.045 32.944 11.5551 32.987 12.0793C33.03 12.6035 32.9664 13.1309 32.8001 13.6299C32.6007 14.4318 32.155 15.151 31.5256 15.6864C30.8961 16.2217 30.1147 16.5461 29.2912 16.6141L29.2973 16.619ZM30.3111 10.459H30.277C29.7222 10.5502 29.2076 10.8061 28.7999 11.1933C28.3922 11.5805 28.1103 12.0813 27.9906 12.6307C27.7658 13.3122 27.8175 14.0548 28.1346 14.6987C28.2203 14.8679 28.3407 15.0172 28.4878 15.137C28.6349 15.2568 28.8055 15.3444 28.9886 15.3941C29.0911 15.4173 29.1959 15.4292 29.301 15.4295H29.3376L29.3864 15.4234C29.93 15.3337 30.4352 15.0859 30.839 14.711C31.2427 14.3361 31.5272 13.8506 31.6569 13.3151V13.3005C31.8938 12.6071 31.8477 11.8483 31.5288 11.1886C31.443 11.0193 31.3227 10.87 31.1756 10.7502C31.0285 10.6304 30.8578 10.5428 30.6747 10.4931C30.569 10.4665 30.4604 10.453 30.3514 10.4529H30.3075L30.3111 10.459ZM21.6927 10.459C21.4984 10.4589 21.3049 10.4339 21.1169 10.3846C20.7852 10.288 20.4763 10.1256 20.2086 9.90723C19.941 9.68883 19.72 9.41884 19.5589 9.11328C18.9049 7.81232 18.7795 6.30888 19.2087 4.91753C19.8187 2.67508 21.4451 1.0475 23.0726 1.0475C23.2682 1.0469 23.463 1.07192 23.6521 1.12192C23.9852 1.22016 24.2952 1.38427 24.5636 1.60454C24.8321 1.8248 25.0536 2.09672 25.215 2.40419C25.8652 3.70192 25.9898 5.20049 25.5627 6.58776C24.9527 8.83022 23.3251 10.4578 21.6988 10.4578L21.6927 10.459ZM20.3506 5.21275C20.0005 6.28906 20.0756 7.45859 20.5605 8.48128C20.7251 8.82455 21.0157 9.0911 21.3718 9.2255C21.4759 9.25698 21.584 9.27342 21.6927 9.27431C22.609 9.27431 23.9096 8.12869 24.4147 6.27787C24.7605 5.20707 24.6832 4.04451 24.1987 3.02889C24.0346 2.68601 23.7444 2.4198 23.3886 2.28587C23.2861 2.2546 23.1797 2.23816 23.0726 2.23705C22.4881 2.36571 21.9488 2.64859 21.5107 3.05625C21.0726 3.46391 20.7516 3.98146 20.5813 4.55514L20.5715 4.54539L20.5056 4.7467C20.4532 4.88945 20.4043 5.03585 20.3616 5.18713L20.3506 5.21275ZM12.2788 10.459C10.65 10.459 9.02614 8.83145 8.41368 6.58899C7.98345 5.19879 8.10807 3.69601 8.7614 2.39567C8.92283 2.08936 9.14429 1.81872 9.4126 1.59988C9.68091 1.38105 9.99056 1.21848 10.3231 1.12192C10.5106 1.07241 10.7038 1.04739 10.8977 1.0475C12.5314 1.0475 14.1552 2.67505 14.7677 4.91872C15.1977 6.30853 15.0731 7.81085 14.42 9.11082C14.2589 9.41712 14.0376 9.68779 13.7695 9.90664C13.5014 10.1255 13.1919 10.288 12.8596 10.3846C12.672 10.434 12.4789 10.459 12.2849 10.459H12.2788ZM10.8977 2.22365C10.8038 2.22327 10.7103 2.23516 10.6195 2.25902C10.4347 2.3222 10.2641 2.4212 10.1176 2.55037C9.97103 2.67954 9.85139 2.83635 9.7655 3.0118C9.2777 4.03493 9.20172 5.20639 9.55323 6.28398C10.051 8.11406 11.3516 9.2621 12.269 9.2621C12.362 9.26226 12.4547 9.2508 12.5448 9.22795C12.9181 9.09971 13.2253 8.82851 13.3988 8.47395C13.8855 7.45046 13.961 6.27929 13.6099 5.20177C13.1182 3.37291 11.8176 2.22365 10.8977 2.22365Z" fill="white" stroke="white" stroke-width="0.6"/>
</svg>
